<svg width="83" height="81" viewBox="0 0 83 81" fill="none" xmlns="http://www.w3.org/2000/svg">
<g>
<path d="M14.6912 49.4707L14.4717 45.4518L14.7827 45.4214C15.8499 48.434 17.7953 51.2271 22.4119 51.2271C25.272 51.2271 27.5956 49.3427 27.5956 46.8301C27.5956 43.6284 23.9853 42.1526 21.1922 41.0549C16.9538 39.39 15.0083 37.8532 15.0083 34.871C15.0083 31.4193 17.9295 29.1873 22.1984 29.1873C25.6502 29.1873 27.6322 30.2545 28.4128 30.7546L28.5408 33.9258L28.2908 33.9867C27.254 31.8218 25.5587 29.6568 21.3812 29.6568C18.8077 29.6568 16.4537 31.1022 16.4537 34.0233C16.4537 37.1031 19.7529 38.3898 22.6375 39.579C26.3759 41.1158 29.108 42.5002 29.108 45.7934C29.108 49.2756 25.8087 51.6967 21.9789 51.6967C18.6186 51.6967 16.0146 50.4099 14.6973 49.4646L14.6912 49.4707Z" fill="#DDD2C0"/>
<path d="M50.6172 40.7012C50.6172 33.6026 55.7277 28.9312 62.4909 28.9312C65.4364 28.9312 68.3515 30.096 69.1077 30.5411L69.2297 33.8221L68.9918 33.8831C67.8819 31.3888 65.3267 29.5593 61.2041 29.5593C56.4534 29.5593 52.4528 32.8708 52.3918 39.4998C52.3613 45.214 55.7582 50.9832 62.4665 50.9832C65.595 50.9832 68.3271 49.5013 69.5895 45.9641L69.8883 45.9946L69.4065 49.6537C68.1441 50.538 64.6863 51.5442 61.6493 51.5442C55.0325 51.5442 50.6172 47.3485 50.6172 40.689V40.7012Z" fill="#DDD2C0"/>
<path d="M41.2195 20.1311V60.3504" stroke="#DDD2C0" stroke-width="0.5" stroke-miterlimit="10"/>
<path d="M41.4999 80.7374C64.3355 80.7374 82.8474 62.6978 82.8474 40.4448C82.8474 18.1919 64.3355 0.152344 41.4999 0.152344C18.6643 0.152344 0.152344 18.1919 0.152344 40.4448C0.152344 62.6978 18.6643 80.7374 41.4999 80.7374Z" stroke="#DDD2C0" stroke-width="0.5" stroke-miterlimit="10"/>
</g>
</svg>
