<svg width="107" height="103" viewBox="0 0 107 103" fill="none" xmlns="http://www.w3.org/2000/svg">
    <g>
        <path
            d="M19.3997 62.9251L19.1205 57.8132L19.5161 57.7744C20.8736 61.6064 23.3481 65.1592 29.2202 65.1592C32.8583 65.1592 35.8138 62.7622 35.8138 59.5663C35.8138 55.4938 31.2216 53.6166 27.6688 52.2203C22.2776 50.1026 19.8031 48.1478 19.8031 44.3546C19.8031 39.9641 23.5188 37.125 28.9487 37.125C33.3393 37.125 35.8603 38.4825 36.8532 39.1186L37.0161 43.1523L36.6981 43.2298C35.3794 40.4761 33.2229 37.7223 27.9093 37.7223C24.6358 37.7223 21.6415 39.5607 21.6415 43.2764C21.6415 47.1937 25.8381 48.8305 29.5072 50.3431C34.2623 52.2979 37.7375 54.0588 37.7375 58.2476C37.7375 62.6769 33.5409 65.7565 28.6695 65.7565C24.3953 65.7565 21.083 64.1197 19.4075 62.9174L19.3997 62.9251Z"
            fill="black" fill-opacity="0.61" />
        <path
            d="M65.0968 51.771C65.0968 42.7417 71.5973 36.7998 80.1999 36.7998C83.9466 36.7998 87.6545 38.2814 88.6163 38.8477L88.7715 43.021L88.469 43.0986C87.0572 39.9259 83.8069 37.5988 78.5631 37.5988C72.5203 37.5988 67.4317 41.8109 67.3541 50.2429C67.3153 57.5113 71.636 64.8495 80.1689 64.8495C84.1482 64.8495 87.6234 62.9645 89.2291 58.4654L89.6092 58.5042L88.9964 63.1584C87.3907 64.2832 82.9924 65.5631 79.1294 65.5631C70.7129 65.5631 65.0968 60.2263 65.0968 51.7555V51.771Z"
            fill="black" fill-opacity="0.61" />
        <path d="M53.1432 25.6064V76.7645" stroke="black" stroke-opacity="0.61"
            stroke-miterlimit="10" />
        <path
            d="M53.5 102.697C82.5464 102.697 106.093 79.7508 106.093 51.4455C106.093 23.1403 82.5464 0.194336 53.5 0.194336C24.4536 0.194336 0.90686 23.1403 0.90686 51.4455C0.90686 79.7508 24.4536 102.697 53.5 102.697Z"
            stroke="black" stroke-opacity="0.61" stroke-miterlimit="10" />
    </g>
</svg>